<svg xmlns="http://www.w3.org/2000/svg" width="150" height="33" viewBox="0 0 150 33" fill="none"><g id="RollingCode Logo"><path d="M117.044 32.1665C116.493 32.1665 116.019 32.036 115.628 31.775C115.233 31.5139 114.959 31.1542 114.806 30.6927L115.322 30.3902C115.43 30.7627 115.631 31.0555 115.924 31.2656C116.216 31.4757 116.592 31.5808 117.054 31.5808C117.502 31.5808 117.849 31.4821 118.101 31.2847C118.349 31.0874 118.477 30.8232 118.477 30.4953C118.477 30.1674 118.362 29.9414 118.133 29.7791C117.904 29.6199 117.525 29.4512 116.996 29.2793C116.369 29.0724 115.955 28.9069 115.755 28.7795C115.296 28.5026 115.067 28.1047 115.067 27.5826C115.067 27.0701 115.246 26.6691 115.602 26.373C115.959 26.077 116.398 25.9305 116.92 25.9305C117.391 25.9305 117.799 26.0515 118.142 26.2966C118.486 26.5417 118.744 26.8537 118.909 27.2325L118.4 27.5158C118.123 26.8505 117.63 26.5163 116.92 26.5163C116.548 26.5163 116.245 26.6086 116.016 26.7932C115.787 26.9778 115.672 27.2325 115.672 27.5604C115.672 27.8596 115.777 28.0824 115.981 28.232C116.188 28.3816 116.528 28.5344 117.006 28.6872C117.225 28.7604 117.382 28.8146 117.477 28.8464C117.573 28.8782 117.709 28.9291 117.891 29.0024C118.072 29.0756 118.206 29.1361 118.292 29.1934C118.378 29.2475 118.483 29.3239 118.607 29.4162C118.731 29.5117 118.82 29.6072 118.874 29.6995C118.929 29.795 118.976 29.9096 119.021 30.0433C119.065 30.177 119.085 30.3234 119.085 30.4794C119.085 30.9919 118.897 31.3993 118.524 31.7081C118.152 32.0169 117.658 32.1697 117.05 32.1697L117.044 32.1665Z" fill="#292929"></path><path d="M122.885 32.1665C121.972 32.1665 121.217 31.8641 120.619 31.2624C120.02 30.6608 119.724 29.9223 119.724 29.0501C119.724 28.1779 120.024 27.4394 120.619 26.8377C121.217 26.2361 121.972 25.9337 122.885 25.9337C123.442 25.9337 123.955 26.0674 124.42 26.3348C124.884 26.6022 125.244 26.9619 125.496 27.4171L124.961 27.7259C124.77 27.3598 124.49 27.0669 124.117 26.8473C123.745 26.6277 123.334 26.5194 122.885 26.5194C122.134 26.5194 121.52 26.7645 121.042 27.2516C120.565 27.7386 120.326 28.3402 120.326 29.0533C120.326 29.7663 120.565 30.3648 121.042 30.855C121.52 31.342 122.134 31.5871 122.885 31.5871C123.334 31.5871 123.745 31.4789 124.117 31.2593C124.49 31.0396 124.773 30.7468 124.961 30.3807L125.496 30.6831C125.247 31.1383 124.891 31.498 124.423 31.7686C123.955 32.0391 123.442 32.1728 122.885 32.1728V32.1665Z" fill="#292929"></path><path d="M130.359 26.0324H130.961V32.0614H130.359V29.2443H127.087V32.0614H126.485V26.0324H127.087V28.6776H130.359V26.0324Z" fill="#292929"></path><path d="M137.327 31.2593C136.726 31.8641 135.987 32.1697 135.115 32.1697C134.243 32.1697 133.504 31.8672 132.903 31.2593C132.301 30.6544 131.999 29.9159 131.999 29.0501C131.999 28.1843 132.301 27.4457 132.903 26.8409C133.504 26.2361 134.243 25.9337 135.115 25.9337C135.987 25.9337 136.726 26.2361 137.327 26.8409C137.929 27.4457 138.231 28.1843 138.231 29.0501C138.231 29.9159 137.929 30.6544 137.327 31.2593ZM133.323 30.8454C133.807 31.3356 134.402 31.5808 135.115 31.5808C135.828 31.5808 136.423 31.3356 136.907 30.8454C137.391 30.3552 137.63 29.7568 137.63 29.0501C137.63 28.3434 137.388 27.745 136.907 27.2548C136.423 26.7645 135.828 26.5194 135.115 26.5194C134.402 26.5194 133.807 26.7645 133.323 27.2548C132.839 27.745 132.6 28.3434 132.6 29.0501C132.6 29.7568 132.842 30.3552 133.323 30.8454Z" fill="#292929"></path><path d="M144.254 31.2593C143.653 31.8641 142.914 32.1697 142.039 32.1697C141.163 32.1697 140.428 31.8672 139.826 31.2593C139.225 30.6544 138.922 29.9159 138.922 29.0501C138.922 28.1843 139.225 27.4457 139.826 26.8409C140.428 26.2361 141.166 25.9337 142.039 25.9337C142.911 25.9337 143.649 26.2361 144.254 26.8409C144.856 27.4457 145.158 28.1843 145.158 29.0501C145.158 29.9159 144.856 30.6544 144.254 31.2593ZM140.25 30.8454C140.733 31.3356 141.329 31.5808 142.042 31.5808C142.755 31.5808 143.35 31.3356 143.834 30.8454C144.318 30.3552 144.557 29.7568 144.557 29.0501C144.557 28.3434 144.315 27.745 143.834 27.2548C143.35 26.7645 142.755 26.5194 142.042 26.5194C141.329 26.5194 140.733 26.7645 140.25 27.2548C139.766 27.745 139.527 28.3434 139.527 29.0501C139.527 29.7568 139.769 30.3552 140.25 30.8454Z" fill="#292929"></path><path d="M146.794 31.4948H149.551V32.0646H146.193V26.0356H146.794V31.498V31.4948Z" fill="#292929"></path><path d="M48.1336 23.5877L44.7816 17.8611H41.2514V23.5877H39.2651V8.62652H45.2496C46.5324 8.62652 47.6275 9.07854 48.541 9.98258C49.4515 10.8866 49.9098 11.9816 49.9098 13.2645C49.9098 14.2322 49.6201 15.1171 49.044 15.9129C48.4678 16.7119 47.723 17.2722 46.8094 17.6L50.3364 23.5845H48.1368L48.1336 23.5877ZM41.2514 10.4887V16.0657H45.2464C45.9881 16.0657 46.6184 15.792 47.1372 15.2445C47.6561 14.6969 47.9171 14.038 47.9171 13.2677C47.9171 12.4973 47.6561 11.8448 47.1372 11.3004C46.6184 10.7593 45.9881 10.4887 45.2464 10.4887H41.2514Z" fill="#292929"></path><path d="M60.5003 22.2189C59.4435 23.2726 58.1575 23.7978 56.6423 23.7978C55.127 23.7978 53.841 23.2726 52.7906 22.2189C51.7369 21.1685 51.2117 19.8792 51.2117 18.3513C51.2117 16.8234 51.7369 15.5373 52.7906 14.4837C53.841 13.43 55.127 12.9048 56.6423 12.9048C58.1575 12.9048 59.4435 13.43 60.5003 14.4837C61.5572 15.5373 62.0856 16.8234 62.0856 18.3513C62.0856 19.8792 61.5572 21.1653 60.5003 22.2189ZM54.2326 20.8119C54.882 21.4549 55.6841 21.7765 56.6423 21.7765C57.6004 21.7765 58.4026 21.4549 59.052 20.8119C59.7014 20.1689 60.0228 19.3476 60.0228 18.3513C60.0228 17.3549 59.6982 16.5305 59.052 15.8843C58.4026 15.2349 57.6004 14.9134 56.6423 14.9134C55.6841 14.9134 54.882 15.2381 54.2326 15.8843C53.5832 16.5337 53.2617 17.3549 53.2617 18.3513C53.2617 19.3476 53.5864 20.1689 54.2326 20.8119Z" fill="#292929"></path><path d="M65.7527 21.6141H69.7477V23.5877H63.69V13.1149H65.7559V21.6109L65.7527 21.6141Z" fill="#292929"></path><path d="M73.1251 21.6141H77.1201V23.5877H71.0624V13.1149H73.1283V21.6109L73.1251 21.6141Z" fill="#292929"></path><path d="M78.4379 13.1149H80.5038V23.5877H78.4379V13.1149Z" fill="#292929"></path><path d="M88.6529 13.1149H90.7188V23.5877H89.1495L84.6611 17.1862V23.5877H82.5952V13.1149H84.1646L88.6529 19.494V13.1149Z" fill="#292929"></path><path d="M103.089 17.9629V18.7715C103.089 20.2676 102.611 21.4804 101.653 22.4067C100.695 23.333 99.46 23.7978 97.9448 23.7978C96.3277 23.7978 94.9907 23.2725 93.9275 22.2189C92.8643 21.1684 92.3359 19.8824 92.3359 18.3672C92.3359 16.852 92.8612 15.55 93.9148 14.4932C94.9653 13.4364 96.2704 12.9079 97.827 12.9079C98.8042 12.9079 99.6956 13.1308 100.504 13.5732C101.313 14.0157 101.94 14.6078 102.389 15.3463L100.622 16.3649C100.374 15.9352 99.9948 15.5882 99.4919 15.3176C98.9889 15.0471 98.4286 14.9134 97.8079 14.9134C96.8116 14.9134 95.9903 15.2413 95.3473 15.8938C94.7043 16.5464 94.3828 17.3708 94.3828 18.3704C94.3828 19.3699 94.7106 20.1721 95.3632 20.8151C96.0157 21.4581 96.8816 21.7796 97.9575 21.7796C98.7565 21.7796 99.4154 21.6013 99.9407 21.248C100.463 20.8947 100.819 20.4076 101.01 19.7901H97.8397V17.9661H103.089V17.9629Z" fill="#292929"></path><path d="M112.365 23.8646C110.098 23.8646 108.23 23.1166 106.756 21.6205C105.282 20.1243 104.543 18.2876 104.543 16.1071C104.543 13.9266 105.282 12.0899 106.756 10.5938C108.23 9.09764 110.101 8.34958 112.365 8.34958C113.733 8.34958 114.991 8.67746 116.137 9.3332C117.283 9.98895 118.177 10.8707 118.82 11.9816L117.089 12.9875C116.662 12.1631 116.022 11.501 115.175 11.0108C114.329 10.5205 113.39 10.2723 112.365 10.2723C110.639 10.2723 109.232 10.8293 108.144 11.9403C107.055 13.0512 106.508 14.4391 106.508 16.1071C106.508 17.7751 107.052 19.1407 108.144 20.2517C109.232 21.3626 110.639 21.9197 112.365 21.9197C113.39 21.9197 114.325 21.6746 115.175 21.1812C116.022 20.691 116.662 20.0384 117.089 19.2267L118.82 20.2103C118.193 21.3212 117.302 22.2093 116.15 22.8715C114.994 23.5336 113.733 23.8646 112.368 23.8646H112.365Z" fill="#292929"></path><path d="M129.522 22.2189C128.465 23.2726 127.179 23.7978 125.664 23.7978C124.149 23.7978 122.863 23.2726 121.813 22.2189C120.759 21.1685 120.234 19.8792 120.234 18.3513C120.234 16.8234 120.759 15.5373 121.813 14.4837C122.863 13.43 124.149 12.9048 125.664 12.9048C127.179 12.9048 128.465 13.43 129.522 14.4837C130.579 15.5373 131.108 16.8234 131.108 18.3513C131.108 19.8792 130.579 21.1653 129.522 22.2189ZM123.254 20.8119C123.904 21.4549 124.706 21.7765 125.664 21.7765C126.622 21.7765 127.425 21.4549 128.074 20.8119C128.723 20.1689 129.045 19.3476 129.045 18.3513C129.045 17.3549 128.72 16.5305 128.074 15.8843C127.425 15.2349 126.622 14.9134 125.664 14.9134C124.706 14.9134 123.904 15.2381 123.254 15.8843C122.605 16.5337 122.284 17.3549 122.284 18.3513C122.284 19.3476 122.608 20.1689 123.254 20.8119Z" fill="#292929"></path><path d="M136.866 13.1149C138.302 13.1149 139.502 13.6178 140.463 14.6269C141.424 15.6328 141.905 16.8774 141.905 18.3513C141.905 19.8251 141.424 21.0697 140.463 22.0756C139.502 23.0815 138.302 23.5877 136.866 23.5877H132.709V13.1149H136.866ZM136.866 21.6109C137.773 21.6109 138.512 21.3085 139.082 20.7069C139.651 20.102 139.935 19.319 139.935 18.3513C139.935 17.3836 139.651 16.5973 139.082 15.9957C138.512 15.3909 137.776 15.0916 136.866 15.0916H134.772V21.6141H136.866V21.6109Z" fill="#292929"></path><path d="M145.588 21.6141H150V23.5877H143.522V13.1149H149.924V15.0885H145.585V17.3167H149.548V19.2617H145.585V21.6109L145.588 21.6141Z" fill="#292929"></path><path d="M14.4583 9.85207L4.42154 14.5155V17.6987L14.4583 22.3653V19.1853L7.83714 16.1071L14.4583 13.0321V9.85207Z" fill="#292929"></path><path d="M17.756 9.85206V13.0321L24.3739 16.1071L17.756 19.1853V22.3653L27.7896 17.6987V14.5155L17.756 9.85206Z" fill="#292929"></path><path d="M16.1071 1.88447C23.9633 1.88447 30.3298 8.25092 30.3298 16.1071C30.3298 23.9633 23.9633 30.3298 16.1071 30.3298C8.25091 30.3298 1.88448 23.9633 1.88448 16.1071C1.88448 8.25092 8.25091 1.88447 16.1071 1.88447ZM16.1071 0C7.22592 0 0 7.22592 0 16.1071C0 24.9883 7.22592 32.2142 16.1071 32.2142C24.9883 32.2142 32.2142 24.9883 32.2142 16.1071C32.2142 7.22592 24.9883 0 16.1071 0Z" fill="#292929"></path></g></svg>